<svg id="Livello_1" data-name="Livello 1" xmlns="http://www.w3.org/2000/svg" viewBox="0 0 241.16 104.78"><defs><style>.cls-1{fill:#fff;}.cls-2{fill:#f39322;}</style></defs><path class="cls-1" d="M43.06,70.77H34.59a8.35,8.35,0,0,0-1-2.93,7.53,7.53,0,0,0-1.84-2.2,8.12,8.12,0,0,0-2.58-1.39,10.06,10.06,0,0,0-3.16-.48,9.46,9.46,0,0,0-5.36,1.51,9.85,9.85,0,0,0-3.53,4.41,17.53,17.53,0,0,0-1.26,7,17.61,17.61,0,0,0,1.27,7.12A9.14,9.14,0,0,0,26,89.64a10.53,10.53,0,0,0,3.13-.45,8,8,0,0,0,2.56-1.3,7.5,7.5,0,0,0,1.86-2.1,8.19,8.19,0,0,0,1-2.82l8.47,0a15.47,15.47,0,0,1-1.64,5.26,15.72,15.72,0,0,1-3.5,4.5,16.21,16.21,0,0,1-5.22,3.13A19,19,0,0,1,25.87,97a18.64,18.64,0,0,1-9.47-2.39,16.91,16.91,0,0,1-6.57-7,23.13,23.13,0,0,1-2.41-11,23,23,0,0,1,2.44-11,17,17,0,0,1,6.61-6.93,18.61,18.61,0,0,1,9.4-2.39,20.28,20.28,0,0,1,6.39,1,16.27,16.27,0,0,1,5.23,2.81,14.75,14.75,0,0,1,3.72,4.52A16.82,16.82,0,0,1,43.06,70.77Z" transform="translate(-7.42 -56.36)"/><path class="cls-1" d="M48.92,96.5V66.8h8V72h.31a7.7,7.7,0,0,1,2.73-4.18,7.16,7.16,0,0,1,4.41-1.42,12.77,12.77,0,0,1,1.33.07,11.22,11.22,0,0,1,1.26.22V74a10.47,10.47,0,0,0-1.61-.31,14.49,14.49,0,0,0-1.87-.14,6.58,6.58,0,0,0-3.24.78A5.89,5.89,0,0,0,58,76.49a6.28,6.28,0,0,0-.82,3.21V96.5Z" transform="translate(-7.42 -56.36)"/><path class="cls-1" d="M77.18,107.64a16.75,16.75,0,0,1-2.92-.24,11.5,11.5,0,0,1-2.26-.61l1.86-6.15a9.74,9.74,0,0,0,2.62.48,3.28,3.28,0,0,0,2-.54,4,4,0,0,0,1.4-2l.48-1.26L69.74,66.8H78.4l6.15,21.81h.31L91.07,66.8h8.72L88.24,99.71A13.89,13.89,0,0,1,86,103.9a9.39,9.39,0,0,1-3.59,2.76A12.63,12.63,0,0,1,77.18,107.64Z" transform="translate(-7.42 -56.36)"/><path class="cls-1" d="M104,107.64V66.8h8.12v5h.37a10.82,10.82,0,0,1,1.58-2.44,8.2,8.2,0,0,1,2.7-2.09,9.27,9.27,0,0,1,4.17-.85,11.21,11.21,0,0,1,6,1.7,11.72,11.72,0,0,1,4.38,5.08,19.39,19.39,0,0,1,1.65,8.5,19.61,19.61,0,0,1-1.6,8.38A11.78,11.78,0,0,1,127,95.23,11.08,11.08,0,0,1,120.92,97a9.44,9.44,0,0,1-4.07-.8,8.34,8.34,0,0,1-2.73-2,10.09,10.09,0,0,1-1.63-2.44h-.25v15.89Zm8.07-26a13.18,13.18,0,0,0,.73,4.62,6.79,6.79,0,0,0,2.13,3.07,5.79,5.79,0,0,0,6.79,0,6.85,6.85,0,0,0,2.11-3.1,14.61,14.61,0,0,0,0-9.09,6.87,6.87,0,0,0-2.1-3.06,5.92,5.92,0,0,0-6.82,0,6.68,6.68,0,0,0-2.12,3A13.06,13.06,0,0,0,112.07,81.65Z" transform="translate(-7.42 -56.36)"/><path class="cls-1" d="M154.24,66.8V73H136.35V66.8Zm-13.83,59.55V59.69h8.24V132Z" transform="translate(-7.42 -56.36)"/><path class="cls-1" d="M20.69,116.69v-6.91H53.21v6.91H41.09v32.69H32.81V116.69Z" transform="translate(-7.42 -56.36)"/><path class="cls-1" d="M55.34,149.38v-29.7h8v5.19h.31a7.73,7.73,0,0,1,2.72-4.19,7.2,7.2,0,0,1,4.41-1.42,10.51,10.51,0,0,1,1.33.08,9.16,9.16,0,0,1,1.26.21v7.31a10.31,10.31,0,0,0-1.6-.31,14.63,14.63,0,0,0-1.88-.14,6.64,6.64,0,0,0-3.24.78,5.86,5.86,0,0,0-2.24,2.18,6.18,6.18,0,0,0-.82,3.21v16.8Z" transform="translate(-7.42 -56.36)"/><path class="cls-1" d="M85.23,149.94a12.32,12.32,0,0,1-5.06-1,8,8,0,0,1-3.51-3,8.74,8.74,0,0,1-1.29-4.9,8.62,8.62,0,0,1,.91-4.16,7.43,7.43,0,0,1,2.48-2.71,12.07,12.07,0,0,1,3.56-1.54,26.59,26.59,0,0,1,4.21-.74c1.72-.18,3.12-.35,4.17-.51A5.73,5.73,0,0,0,93,130.7a1.61,1.61,0,0,0,.71-1.42v-.12a3.55,3.55,0,0,0-1.15-2.84,4.8,4.8,0,0,0-3.26-1,5.83,5.83,0,0,0-3.54,1A4.63,4.63,0,0,0,84,128.73l-7.61-.62a10.28,10.28,0,0,1,2.28-4.68,11,11,0,0,1,4.4-3.06,16.7,16.7,0,0,1,6.25-1.07,19,19,0,0,1,4.75.58,12.26,12.26,0,0,1,4,1.8,8.72,8.72,0,0,1,2.79,3.12,9.41,9.41,0,0,1,1,4.55v20H94.14v-4.12h-.23A8.08,8.08,0,0,1,92,147.71a8.63,8.63,0,0,1-2.88,1.64A11.57,11.57,0,0,1,85.23,149.94Zm2.36-5.68a6.78,6.78,0,0,0,3.21-.73,5.56,5.56,0,0,0,2.19-2,5.14,5.14,0,0,0,.79-2.8v-3.15a4.31,4.31,0,0,1-1.06.45,14.1,14.1,0,0,1-1.49.37c-.56.11-1.11.2-1.67.29l-1.51.22a10.12,10.12,0,0,0-2.53.68,4,4,0,0,0-1.68,1.25,3.07,3.07,0,0,0-.6,1.94,3,3,0,0,0,1.23,2.56A5.21,5.21,0,0,0,87.59,144.26Z" transform="translate(-7.42 -56.36)"/><path class="cls-1" d="M121.78,150a15.18,15.18,0,0,1-7.85-1.94,13,13,0,0,1-5-5.4,19,19,0,0,1,0-16,13.11,13.11,0,0,1,5-5.39,14.93,14.93,0,0,1,7.77-1.94,15.44,15.44,0,0,1,6.8,1.41,11.41,11.41,0,0,1,4.63,4,11.72,11.72,0,0,1,1.87,6h-7.77a6.1,6.1,0,0,0-1.73-3.59,5,5,0,0,0-3.67-1.36,5.49,5.49,0,0,0-3.33,1,6.67,6.67,0,0,0-2.22,3,12.94,12.94,0,0,0-.79,4.77,13.31,13.31,0,0,0,.78,4.84,6.6,6.6,0,0,0,2.22,3,5.49,5.49,0,0,0,3.34,1,5.63,5.63,0,0,0,2.55-.58,5,5,0,0,0,1.87-1.7,6.45,6.45,0,0,0,1-2.67H135a12.08,12.08,0,0,1-1.85,6,11.21,11.21,0,0,1-4.55,4A15.12,15.12,0,0,1,121.78,150Z" transform="translate(-7.42 -56.36)"/><path class="cls-1" d="M140.34,149.38v-39.6h8.23v39.6Zm7.46-8.54,0-9.88H149l9.51-11.28H168l-12.78,14.93h-2Zm11.1,8.54-8.74-12.93,5.49-5.82,12.9,18.75Z" transform="translate(-7.42 -56.36)"/><path class="cls-1" d="M176.15,115.86a4.44,4.44,0,0,1-3.14-1.22,4,4,0,0,1,0-5.89,4.62,4.62,0,0,1,6.27,0,4,4,0,0,1,0,5.89A4.42,4.42,0,0,1,176.15,115.86ZM172,149.38v-29.7h8.24v29.7Z" transform="translate(-7.42 -56.36)"/><path class="cls-1" d="M195.06,132.21v17.17h-8.24v-29.7h7.85v5.24H195a8.41,8.41,0,0,1,3.31-4.11A10,10,0,0,1,204,119.3a10.48,10.48,0,0,1,5.4,1.35,9.21,9.21,0,0,1,3.57,3.86,12.88,12.88,0,0,1,1.28,6v18.91H206V131.94a6,6,0,0,0-1.4-4.26,5,5,0,0,0-3.88-1.54,5.81,5.81,0,0,0-2.93.72,4.86,4.86,0,0,0-2,2.08A7.14,7.14,0,0,0,195.06,132.21Z" transform="translate(-7.42 -56.36)"/><path class="cls-1" d="M234.06,161.14a19.17,19.17,0,0,1-6.86-1.09,11.47,11.47,0,0,1-4.53-3,9.18,9.18,0,0,1-2.19-4.22l7.62-1a5.11,5.11,0,0,0,1.1,1.66,5.48,5.48,0,0,0,2,1.25,8.71,8.71,0,0,0,3,.47,7.24,7.24,0,0,0,4.44-1.3c1.17-.87,1.75-2.33,1.75-4.36v-5.44h-.35a7.71,7.71,0,0,1-1.62,2.34,8,8,0,0,1-2.79,1.8,10.58,10.58,0,0,1-4.06.7,12.07,12.07,0,0,1-6.08-1.56,11,11,0,0,1-4.35-4.77,18.12,18.12,0,0,1-1.61-8.15,19.21,19.21,0,0,1,1.64-8.44A11.72,11.72,0,0,1,225.6,121a11.23,11.23,0,0,1,6-1.68,9.29,9.29,0,0,1,4.18.84,8.18,8.18,0,0,1,2.72,2.09,11.25,11.25,0,0,1,1.59,2.44h.31v-5h8.18v30a10.46,10.46,0,0,1-1.86,6.34,11.11,11.11,0,0,1-5.13,3.84A20.49,20.49,0,0,1,234.06,161.14Zm.17-18.37a5.67,5.67,0,0,0,3.38-1,6.26,6.26,0,0,0,2.12-2.87,12,12,0,0,0,.75-4.47,12.71,12.71,0,0,0-.74-4.54,6.54,6.54,0,0,0-2.12-3,5.91,5.91,0,0,0-6.81,0,6.71,6.71,0,0,0-2.11,3,13,13,0,0,0-.71,4.47,12.37,12.37,0,0,0,.72,4.44,6.39,6.39,0,0,0,2.11,2.88A5.65,5.65,0,0,0,234.23,142.77Z" transform="translate(-7.42 -56.36)"/><path class="cls-2" d="M188,85.38A15.91,15.91,0,1,1,176.4,66.1,15.92,15.92,0,0,1,188,85.38Z" transform="translate(-7.42 -56.36)"/><path class="cls-1" d="M179.57,79.26c.32-2.11-1.29-3.25-3.5-4l.72-2.87L175,72l-.7,2.79c-.45-.12-.93-.22-1.39-.33l.7-2.81-1.75-.44L171.19,74l-1.12-.26h0l-2.4-.6L167.2,75s1.3.3,1.27.32a.91.91,0,0,1,.81,1l-.81,3.27.18.06-.18-.05-1.15,4.58a.63.63,0,0,1-.8.42s-1.26-.32-1.26-.32l-.87,2,2.27.56,1.25.32-.73,2.91,1.75.43.71-2.87L171,88l-.71,2.86,1.75.43.72-2.89c3,.56,5.21.33,6.16-2.36.75-2.17,0-3.42-1.61-4.23a2.8,2.8,0,0,0,2.23-2.57Zm-4,5.6c-.54,2.17-4.19,1-5.37.7l1-3.84c1.18.29,5,.88,4.41,3.14Zm.54-5.63c-.49,2-3.53,1-4.51.73l.87-3.49C173.46,76.72,176.64,77.18,176.12,79.23Z" transform="translate(-7.42 -56.36)"/></svg>